<svg width="279" height="9" viewBox="0 0 279 9" fill="none" xmlns="http://www.w3.org/2000/svg">
<path fill-rule="evenodd" clip-rule="evenodd" d="M7.90282 0L15.8056 7.6046L14.3555 9L7.90282 2.79081L1.45013 9L0 7.6046L7.90282 0Z" fill="#F1BF42"/>
<path fill-rule="evenodd" clip-rule="evenodd" d="M20.7449 0L28.6477 7.6046L27.1976 9L20.7449 2.79081L14.2922 9L12.842 7.6046L20.7449 0Z" fill="#F1BF42"/>
<path fill-rule="evenodd" clip-rule="evenodd" d="M33.5869 0L41.4897 7.6046L40.0396 9L33.5869 2.79081L27.1342 9L25.6841 7.6046L33.5869 0Z" fill="#F1BF42"/>
<path fill-rule="evenodd" clip-rule="evenodd" d="M46.4292 0L54.332 7.6046L52.8819 9L46.4292 2.79081L39.9765 9L38.5264 7.6046L46.4292 0Z" fill="#F1BF42"/>
<path fill-rule="evenodd" clip-rule="evenodd" d="M59.2712 0L67.1741 7.6046L65.7239 9L59.2712 2.79081L52.8185 9L51.3684 7.6046L59.2712 0Z" fill="#F1BF42"/>
<path fill-rule="evenodd" clip-rule="evenodd" d="M72.1133 0L80.0161 7.6046L78.566 9L72.1133 2.79081L65.6606 9L64.2104 7.6046L72.1133 0Z" fill="#F1BF42"/>
<path fill-rule="evenodd" clip-rule="evenodd" d="M84.9553 0L92.8581 7.6046L91.408 9L84.9553 2.79081L78.5026 9L77.0525 7.6046L84.9553 0Z" fill="#F1BF42"/>
<path fill-rule="evenodd" clip-rule="evenodd" d="M97.7974 0L105.7 7.6046L104.25 9L97.7974 2.79081L91.3447 9L89.8945 7.6046L97.7974 0Z" fill="#F1BF42"/>
<path fill-rule="evenodd" clip-rule="evenodd" d="M110.639 0L118.542 7.6046L117.092 9L110.639 2.79081L104.187 9L102.737 7.6046L110.639 0Z" fill="#F1BF42"/>
<path fill-rule="evenodd" clip-rule="evenodd" d="M123.482 0L131.385 7.6046L129.934 9L123.482 2.79081L117.029 9L115.579 7.6046L123.482 0Z" fill="#F1BF42"/>
<path fill-rule="evenodd" clip-rule="evenodd" d="M136.324 0L144.227 7.6046L142.776 9L136.324 2.79081L129.871 9L128.421 7.6046L136.324 0Z" fill="#F1BF42"/>
<path fill-rule="evenodd" clip-rule="evenodd" d="M149.166 0L157.068 7.6046L155.618 9L149.166 2.79081L142.713 9L141.263 7.6046L149.166 0Z" fill="#F1BF42"/>
<path fill-rule="evenodd" clip-rule="evenodd" d="M162.008 0L169.911 7.6046L168.46 9L162.008 2.79081L155.555 9L154.105 7.6046L162.008 0Z" fill="#F1BF42"/>
<path fill-rule="evenodd" clip-rule="evenodd" d="M174.85 0L182.753 7.6046L181.303 9L174.85 2.79081L168.397 9L166.947 7.6046L174.85 0Z" fill="#F1BF42"/>
<path fill-rule="evenodd" clip-rule="evenodd" d="M187.692 0L195.595 7.6046L194.145 9L187.692 2.79081L181.239 9L179.789 7.6046L187.692 0Z" fill="#F1BF42"/>
<path fill-rule="evenodd" clip-rule="evenodd" d="M200.534 0L208.437 7.6046L206.987 9L200.534 2.79081L194.081 9L192.631 7.6046L200.534 0Z" fill="#F1BF42"/>
<path fill-rule="evenodd" clip-rule="evenodd" d="M213.376 0L221.279 7.6046L219.829 9L213.376 2.79081L206.924 9L205.473 7.6046L213.376 0Z" fill="#F1BF42"/>
<path fill-rule="evenodd" clip-rule="evenodd" d="M226.218 0L234.121 7.6046L232.671 9L226.218 2.79081L219.766 9L218.315 7.6046L226.218 0Z" fill="#F1BF42"/>
<path fill-rule="evenodd" clip-rule="evenodd" d="M239.061 0L246.963 7.6046L245.513 9L239.061 2.79081L232.608 9L231.158 7.6046L239.061 0Z" fill="#F1BF42"/>
<path fill-rule="evenodd" clip-rule="evenodd" d="M251.902 0L259.805 7.6046L258.355 9L251.902 2.79081L245.45 9L244 7.6046L251.902 0Z" fill="#F1BF42"/>
<path fill-rule="evenodd" clip-rule="evenodd" d="M264.745 0L272.647 7.6046L271.197 9L264.745 2.79081L258.292 9L256.842 7.6046L264.745 0Z" fill="#F1BF42"/>
<path d="M277.586 2.79081L271.134 9L269.684 7.6046L277.586 0L279 1.36005L277.586 2.79081Z" fill="#F1BF42"/>
</svg>
