<svg width="228" height="12" viewBox="0 0 228 12" fill="none" xmlns="http://www.w3.org/2000/svg">
<path fill-rule="evenodd" clip-rule="evenodd" d="M10.5664 0L21.1327 10.1395L19.1939 12L10.5664 3.72108L1.93887 12L0 10.1395L10.5664 0Z" fill="#F1BF42"/>
<path fill-rule="evenodd" clip-rule="evenodd" d="M27.6738 0L38.2401 10.1395L36.3013 12L27.6738 3.72108L19.0463 12L17.1074 10.1395L27.6738 0Z" fill="#F1BF42"/>
<path fill-rule="evenodd" clip-rule="evenodd" d="M44.7812 0L55.3476 10.1395L53.4087 12L44.7812 3.72108L36.1537 12L34.2148 10.1395L44.7812 0Z" fill="#F1BF42"/>
<path fill-rule="evenodd" clip-rule="evenodd" d="M61.8886 0L72.455 10.1395L70.5161 12L61.8886 3.72108L53.2611 12L51.3223 10.1395L61.8886 0Z" fill="#F1BF42"/>
<path fill-rule="evenodd" clip-rule="evenodd" d="M78.996 0L89.5624 10.1395L87.6235 12L78.996 3.72108L70.3686 12L68.4297 10.1395L78.996 0Z" fill="#F1BF42"/>
<path fill-rule="evenodd" clip-rule="evenodd" d="M96.1035 0L106.67 10.1395L104.731 12L96.1035 3.72108L87.476 12L85.5371 10.1395L96.1035 0Z" fill="#F1BF42"/>
<path fill-rule="evenodd" clip-rule="evenodd" d="M113.211 0L123.777 10.1395L121.838 12L113.211 3.72108L104.583 12L102.645 10.1395L113.211 0Z" fill="#F1BF42"/>
<path fill-rule="evenodd" clip-rule="evenodd" d="M130.318 0L140.885 10.1395L138.946 12L130.318 3.72108L121.691 12L119.752 10.1395L130.318 0Z" fill="#F1BF42"/>
<path fill-rule="evenodd" clip-rule="evenodd" d="M147.426 0L157.992 10.1395L156.053 12L147.426 3.72108L138.798 12L136.859 10.1395L147.426 0Z" fill="#F1BF42"/>
<path fill-rule="evenodd" clip-rule="evenodd" d="M164.533 0L175.1 10.1395L173.161 12L164.533 3.72108L155.906 12L153.967 10.1395L164.533 0Z" fill="#F1BF42"/>
<path fill-rule="evenodd" clip-rule="evenodd" d="M181.641 0L192.207 10.1395L190.268 12L181.641 3.72108L173.013 12L171.074 10.1395L181.641 0Z" fill="#F1BF42"/>
<path fill-rule="evenodd" clip-rule="evenodd" d="M198.748 0L209.315 10.1395L207.376 12L198.748 3.72108L190.121 12L188.182 10.1395L198.748 0Z" fill="#F1BF42"/>
<path fill-rule="evenodd" clip-rule="evenodd" d="M216.748 0L227.315 10.1395L225.376 12L216.748 3.72108L208.121 12L206.182 10.1395L216.748 0Z" fill="#F1BF42"/>
</svg>
