<svg width="110" height="9" viewBox="0 0 110 9" fill="none" xmlns="http://www.w3.org/2000/svg">
<path fill-rule="evenodd" clip-rule="evenodd" d="M7.75791 0L15.5158 7.6046L14.0923 9L7.75791 2.79081L1.42354 9L0 7.6046L7.75791 0Z" fill="white"/>
<path fill-rule="evenodd" clip-rule="evenodd" d="M20.3645 0L28.1224 7.6046L26.6989 9L20.3645 2.79081L14.0301 9L12.6066 7.6046L20.3645 0Z" fill="white"/>
<path fill-rule="evenodd" clip-rule="evenodd" d="M32.971 0L40.729 7.6046L39.3054 9L32.971 2.79081L26.6367 9L25.2131 7.6046L32.971 0Z" fill="white"/>
<path fill-rule="evenodd" clip-rule="evenodd" d="M45.5777 0L53.3357 7.6046L51.9121 9L45.5777 2.79081L39.2434 9L37.8198 7.6046L45.5777 0Z" fill="white"/>
<path fill-rule="evenodd" clip-rule="evenodd" d="M58.1844 0L65.9423 7.6046L64.5188 9L58.1844 2.79081L51.85 9L50.4265 7.6046L58.1844 0Z" fill="white"/>
<path fill-rule="evenodd" clip-rule="evenodd" d="M70.791 0L78.5489 7.6046L77.1254 9L70.791 2.79081L64.4566 9L63.0331 7.6046L70.791 0Z" fill="white"/>
<path fill-rule="evenodd" clip-rule="evenodd" d="M83.3976 0L91.1555 7.6046L89.7319 9L83.3976 2.79081L77.0632 9L75.6396 7.6046L83.3976 0Z" fill="white"/>
<path fill-rule="evenodd" clip-rule="evenodd" d="M96.0041 0L103.762 7.6046L102.339 9L96.0041 2.79081L89.6698 9L88.2462 7.6046L96.0041 0Z" fill="white"/>
<path d="M108.611 2.79081L102.276 9L100.853 7.6046L108.611 0L110 1.36176L108.611 2.79081Z" fill="white"/>
</svg>
