<svg width="146" height="12" viewBox="0 0 146 12" fill="none" xmlns="http://www.w3.org/2000/svg">
<path fill-rule="evenodd" clip-rule="evenodd" d="M10.3311 0L20.6622 10.1395L18.7665 12L10.3311 3.72108L1.8957 12L0 10.1395L10.3311 0Z" fill="#F1BF42"/>
<path fill-rule="evenodd" clip-rule="evenodd" d="M27.0577 0L37.3888 10.1395L35.4931 12L27.0577 3.72108L18.6223 12L16.7266 10.1395L27.0577 0Z" fill="#F1BF42"/>
<path fill-rule="evenodd" clip-rule="evenodd" d="M43.7842 0L54.1153 10.1395L52.2196 12L43.7842 3.72108L35.3488 12L33.4531 10.1395L43.7842 0Z" fill="#F1BF42"/>
<path fill-rule="evenodd" clip-rule="evenodd" d="M60.5105 0L70.8416 10.1395L68.9459 12L60.5105 3.72108L52.0751 12L50.1794 10.1395L60.5105 0Z" fill="#F1BF42"/>
<path fill-rule="evenodd" clip-rule="evenodd" d="M77.2373 0L87.5684 10.1395L85.6727 12L77.2373 3.72108L68.802 12L66.9062 10.1395L77.2373 0Z" fill="#F1BF42"/>
<path fill-rule="evenodd" clip-rule="evenodd" d="M93.9639 0L104.295 10.1395L102.399 12L93.9639 3.72108L85.5285 12L83.6328 10.1395L93.9639 0Z" fill="#F1BF42"/>
<path fill-rule="evenodd" clip-rule="evenodd" d="M110.69 0L121.021 10.1395L119.126 12L110.69 3.72108L102.255 12L100.359 10.1395L110.69 0Z" fill="#F1BF42"/>
<path fill-rule="evenodd" clip-rule="evenodd" d="M127.417 0L137.748 10.1395L135.852 12L127.417 3.72108L118.981 12L117.086 10.1395L127.417 0Z" fill="#F1BF42"/>
<path d="M144.143 3.72108L135.708 12L133.812 10.1395L144.143 0L146 1.82218L144.143 3.72108Z" fill="#F1BF42"/>
</svg>
