<svg width="162" height="14" viewBox="0 0 162 14" fill="none" xmlns="http://www.w3.org/2000/svg">
<path fill-rule="evenodd" clip-rule="evenodd" d="M12.5208 0L25.0417 11.8294L22.7442 14L12.5208 4.34126L2.29751 14L0 11.8294L12.5208 0Z" fill="#F1BF42"/>
<path fill-rule="evenodd" clip-rule="evenodd" d="M33.5559 0L46.0767 11.8294L43.7792 14L33.5559 4.34126L23.3325 14L21.035 11.8294L33.5559 0Z" fill="#F1BF42"/>
<path fill-rule="evenodd" clip-rule="evenodd" d="M54.5908 0L67.1116 11.8294L64.8141 14L54.5908 4.34126L44.3675 14L42.0699 11.8294L54.5908 0Z" fill="#F1BF42"/>
<path fill-rule="evenodd" clip-rule="evenodd" d="M75.6258 0L88.1466 11.8294L85.8491 14L75.6258 4.34126L65.4025 14L63.105 11.8294L75.6258 0Z" fill="#F1BF42"/>
<path fill-rule="evenodd" clip-rule="evenodd" d="M96.6608 0L109.182 11.8294L106.884 14L96.6608 4.34126L86.4375 14L84.14 11.8294L96.6608 0Z" fill="#F1BF42"/>
<path fill-rule="evenodd" clip-rule="evenodd" d="M117.696 0L130.217 11.8294L127.919 14L117.696 4.34126L107.473 14L105.175 11.8294L117.696 0Z" fill="#F1BF42"/>
<path fill-rule="evenodd" clip-rule="evenodd" d="M138.731 0L151.252 11.8294L148.954 14L138.731 4.34126L128.507 14L126.21 11.8294L138.731 0Z" fill="#F1BF42"/>
<path d="M159.766 4.34126L149.543 14L147.245 11.8294L159.766 0L162 2.1108L159.766 4.34126Z" fill="#F1BF42"/>
</svg>
