<svg width="220" height="12" viewBox="0 0 220 12" fill="none" xmlns="http://www.w3.org/2000/svg">
<path fill-rule="evenodd" clip-rule="evenodd" d="M10.2632 0L20.5264 10.1395L18.6432 12L10.2632 3.72108L1.88325 12L0 10.1395L10.2632 0Z" fill="#F1BF42"/>
<path fill-rule="evenodd" clip-rule="evenodd" d="M26.8798 0L37.143 10.1395L35.2598 12L26.8798 3.72108L18.4998 12L16.6166 10.1395L26.8798 0Z" fill="#F1BF42"/>
<path fill-rule="evenodd" clip-rule="evenodd" d="M43.4965 0L53.7597 10.1395L51.8765 12L43.4965 3.72108L35.1165 12L33.2333 10.1395L43.4965 0Z" fill="#F1BF42"/>
<path fill-rule="evenodd" clip-rule="evenodd" d="M60.1131 0L70.3763 10.1395L68.4931 12L60.1131 3.72108L51.7331 12L49.8499 10.1395L60.1131 0Z" fill="#F1BF42"/>
<path fill-rule="evenodd" clip-rule="evenodd" d="M76.7299 0L86.9931 10.1395L85.1099 12L76.7299 3.72108L68.3499 12L66.4667 10.1395L76.7299 0Z" fill="#F1BF42"/>
<path fill-rule="evenodd" clip-rule="evenodd" d="M93.3465 0L103.61 10.1395L101.726 12L93.3465 3.72108L84.9665 12L83.0833 10.1395L93.3465 0Z" fill="#F1BF42"/>
<path fill-rule="evenodd" clip-rule="evenodd" d="M109.963 0L120.226 10.1395L118.343 12L109.963 3.72108L101.583 12L99.7 10.1395L109.963 0Z" fill="#F1BF42"/>
<path fill-rule="evenodd" clip-rule="evenodd" d="M126.58 0L136.843 10.1395L134.96 12L126.58 3.72108L118.2 12L116.317 10.1395L126.58 0Z" fill="#F1BF42"/>
<path fill-rule="evenodd" clip-rule="evenodd" d="M143.196 0L153.46 10.1395L151.576 12L143.196 3.72108L134.816 12L132.933 10.1395L143.196 0Z" fill="#F1BF42"/>
<path fill-rule="evenodd" clip-rule="evenodd" d="M159.813 0L170.076 10.1395L168.193 12L159.813 3.72108L151.433 12L149.55 10.1395L159.813 0Z" fill="#F1BF42"/>
<path fill-rule="evenodd" clip-rule="evenodd" d="M176.43 0L186.693 10.1395L184.81 12L176.43 3.72108L168.05 12L166.167 10.1395L176.43 0Z" fill="#F1BF42"/>
<path fill-rule="evenodd" clip-rule="evenodd" d="M193.046 0L203.31 10.1395L201.426 12L193.046 3.72108L184.666 12L182.783 10.1395L193.046 0Z" fill="#F1BF42"/>
<path fill-rule="evenodd" clip-rule="evenodd" d="M209.737 0L220 10.1395L218.117 12L209.737 3.72108L201.357 12L199.474 10.1395L209.737 0Z" fill="#F1BF42"/>
</svg>
